<svg height="778.99856" viewBox="0 0 882.34637 778.99856" width="882.34637" xmlns="http://www.w3.org/2000/svg"><g fill="#e6e6e6"><path d="m501.18877 80.56067 3.46953-5.362a80.3872 80.3872 0 0 0 -3.55952-8.33251l-2.24352 1.81205 1.77642-2.74534c-1.69294-3.3325-3.02505-5.43215-3.02505-5.43215s-6.95827 10.96511-9.283 22.57466l4.45222 6.88072-4.9288-3.981a32.52249 32.52249 0 0 0 -.27041 4.0782c0 13.74959 4.49056 24.89583 10.03 24.89583s10.03-11.14624 10.03-24.89583a42.818 42.818 0 0 0 -2.29454-12.84723z" transform="translate(-158.82681 -60.50072)"/><path d="m525.74665 92.48079 6.24485-1.33818a80.386 80.386 0 0 0 3.375-8.40894l-2.86772-.30508 3.19738-.68514c1.15933-3.55352 1.70207-5.98014 1.70207-5.98014s-12.67374 2.83326-22.52676 9.39864l-1.71721 8.01359-.67022-6.30016a32.52414 32.52414 0 0 0 -3.07493 2.69252c-9.72242 9.72242-14.4287 20.77932-10.51174 24.69627s14.97385-.78932 24.69627-10.51174a42.81769 42.81769 0 0 0 7.46188-10.70686z" transform="translate(-158.82681 -60.50072)"/><path d="m528.02764 145.68472c-14.48118.92631-30.25994-.05387-47.04589 0v-38.43185c14.79122 2.30262 30.56472 2.06615 47.04589 0z" transform="translate(-158.82681 -60.50072)"/><path d="m631.62843 175.65222 2.26263-3.49679a52.42392 52.42392 0 0 0 -2.32132-5.434l-1.46308 1.18172 1.15847-1.79036c-1.104-2.17326-1.97276-3.54253-1.97276-3.54253a50.2414 50.2414 0 0 0 -6.05381 14.72187l2.90347 4.4872-3.21427-2.59615a21.20987 21.20987 0 0 0 -.17635 2.65956c0 8.96667 2.92849 16.2356 6.541 16.2356s6.541-7.26893 6.541-16.2356a27.92338 27.92338 0 0 0 -1.49636-8.37821z" transform="translate(-158.82681 -60.50072)"/><path d="m647.64364 183.42582 4.07252-.87269a52.42092 52.42092 0 0 0 2.201-5.48381l-1.87016-.199 2.08514-.44681c.756-2.31739 1.11-3.89989 1.11-3.89989a50.241 50.241 0 0 0 -14.69062 6.12924l-1.11987 5.226-.43707-4.10859a21.20826 21.20826 0 0 0 -2.00529 1.7559c-6.3404 6.34039-9.40955 13.55105-6.85515 16.10546s9.76507-.51475 16.10546-6.85515a27.92314 27.92314 0 0 0 4.8662-6.98238z" transform="translate(-158.82681 -60.50072)"/><path d="m649.13117 218.12229c-9.44378.60408-19.73376-.03513-30.68057 0v-25.063a110.58424 110.58424 0 0 0 30.68057 0z" transform="translate(-158.82681 -60.50072)"/><path d="m643.29962 292.39872c-8.33889.53341-17.425-.031-27.091 0v-22.13072a97.6466 97.6466 0 0 0 27.091 0z" transform="translate(-158.82681 -60.50072)"/><path d="m167.50834 82.48131h364.54703v10.18288h-364.54703z"/><path d="m167.50834 154.77974h364.54703v10.18288h-364.54703z"/><path d="m167.50834 227.07818h364.54703v10.18288h-364.54703z"/><circle cx="470.9581" cy="197.54783" r="20.36576"/></g><circle cx="470.9581" cy="197.54783" fill="#fff" r="16.2926"/><circle cx="470.9581" cy="197.54783" fill="#e6e6e6" r="4.07315"/><path d="m634.87636 249.90225h2.03658v16.2926h-2.03658z" fill="#e6e6e6" transform="matrix(0 1 -1 0 735.11638 -438.34681)"/><path d="m628.76663 243.79252h2.03658v16.2926h-2.03658z" fill="#e6e6e6" transform="matrix(-1 0 0 -1 1100.74302 443.37693)"/><path d="m339.72544 105.10421h13.47506v53.33878h-13.47506z" fill="#e6e6e6"/><path d="m339.72544 113.52612h13.47506v6.17607h-13.47506z" fill="#ccc"/><path d="m339.72544 140.47624h13.47506v6.17607h-13.47506z" fill="#ccc"/><path d="m318.95139 105.10421h13.47506v53.33878h-13.47506z" fill="#e6e6e6"/><path d="m318.95139 113.52612h13.47506v6.17607h-13.47506z" fill="#ccc"/><path d="m318.95139 140.47624h13.47506v6.17607h-13.47506z" fill="#ccc"/><path d="m522.69507 165.60493h13.47506v53.33878h-13.47506z" fill="#e6e6e6" transform="matrix(.89617999 -.44369069 .44369069 .89617999 -189.17144 194.36555)"/><path d="m515.96897 175.60069h13.47506v6.17607h-13.47506z" fill="#ccc" transform="matrix(.89617999 -.44369069 .44369069 .89617999 -183.84194 189.97078)"/><path d="m527.92649 199.75285h13.47506v6.17607h-13.47506z" fill="#ccc" transform="matrix(.89617999 -.44369069 .44369069 .89617999 -193.3166 197.7837)"/><path d="m219.56748 177.40264h13.47506v53.33878h-13.47506z" fill="#e6e6e6"/><path d="m219.56748 185.82455h13.47506v6.17607h-13.47506z" fill="#ccc"/><path d="m219.56748 212.77467h13.47506v6.17607h-13.47506z" fill="#ccc"/><path d="m198.79343 177.40264h13.47506v53.33878h-13.47506z" fill="#e6e6e6"/><path d="m198.79343 185.82455h13.47506v6.17607h-13.47506z" fill="#ccc"/><path d="m198.79343 212.77467h13.47506v6.17607h-13.47506z" fill="#ccc"/><path d="m402.53712 237.90336h13.47506v53.33878h-13.47506z" fill="#e6e6e6" transform="matrix(.89617999 -.44369069 .44369069 .89617999 -233.72439 148.5586)"/><path d="m395.81101 247.89913h13.47506v6.17607h-13.47506z" fill="#ccc" transform="matrix(.89617999 -.44369069 .44369069 .89617999 -228.39489 144.16384)"/><path d="m407.76853 272.05128h13.47506v6.17607h-13.47506z" fill="#ccc" transform="matrix(.89617999 -.44369069 .44369069 .89617999 -237.86955 151.97676)"/><path d="m345.83517 177.40264h13.47506v53.33878h-13.47506z" fill="#e6e6e6"/><path d="m345.83517 185.82455h13.47506v6.17607h-13.47506z" fill="#ccc"/><path d="m345.83517 212.77467h13.47506v6.17607h-13.47506z" fill="#ccc"/><path d="m325.06112 177.40264h13.47506v53.33878h-13.47506z" fill="#e6e6e6"/><path d="m325.06112 185.82455h13.47506v6.17607h-13.47506z" fill="#ccc"/><path d="m325.06112 212.77467h13.47506v6.17607h-13.47506z" fill="#ccc"/><path d="m528.8048 237.90336h13.47506v53.33878h-13.47506z" fill="#e6e6e6" transform="matrix(.89617999 -.44369069 .44369069 .89617999 -220.61527 204.58241)"/><path d="m522.0787 247.89913h13.47506v6.17607h-13.47506z" fill="#ccc" transform="matrix(.89617999 -.44369069 .44369069 .89617999 -215.28577 200.18764)"/><path d="m534.03622 272.05128h13.47506v6.17607h-13.47506z" fill="#ccc" transform="matrix(.89617999 -.44369069 .44369069 .89617999 -224.76043 208.00056)"/><path d="m449.98737 32.64567h53.55594v53.55594h-53.55594z" fill="#e6e6e6"/><path d="m460.69856 43.35686h32.13357v32.13357h-32.13357z" fill="#ccc"/><path d="m470 54.143 6.814 11.801 6.813 11.801h-13.627-13.627l6.814-11.801z" fill="#e6e6e6"/><path d="m481.839 56.398 6.814 11.801 6.813 11.801h-13.627-13.627l6.814-11.801z" fill="#e6e6e6"/><circle cx="486.63091" cy="48.99433" fill="#e6e6e6" r="3.94623"/><path d="m179.12282 32.64567h53.55594v53.55594h-53.55594z" fill="#e6e6e6"/><path d="m189.83401 43.35686h32.13357v32.13357h-32.13357z" fill="#ccc"/><path d="m199.136 54.143 6.813 11.801 6.814 11.801h-13.627-13.627l6.813-11.801z" fill="#e6e6e6"/><path d="m210.975 56.398 6.813 11.801 6.813 11.801h-13.626-13.627l6.813-11.801z" fill="#e6e6e6"/><circle cx="215.76636" cy="48.99433" fill="#e6e6e6" r="3.94623"/><path d="m230.32422 458.34544 3.46953-5.362a80.3871 80.3871 0 0 0 -3.55953-8.33251l-2.24351 1.812 1.77642-2.74534c-1.69294-3.3325-3.02505-5.43215-3.02505-5.43215s-6.95827 10.96511-9.283 22.57466l4.45222 6.88072-4.92881-3.981a32.52438 32.52438 0 0 0 -.27041 4.0782c0 13.74959 4.49057 24.89583 10.03 24.89583s10.03-11.14624 10.03-24.89583a42.818 42.818 0 0 0 -2.29454-12.84723z" fill="#d9c06a" transform="translate(-158.82681 -60.50072)"/><path d="m254.8821 470.26556 6.24485-1.33818a80.386 80.386 0 0 0 3.375-8.40894l-2.86772-.30508 3.19737-.68514c1.15934-3.55352 1.70208-5.98014 1.70208-5.98014s-12.67374 2.83326-22.52676 9.39864l-1.71721 8.01359-.67022-6.30016a32.52414 32.52414 0 0 0 -3.07493 2.69252c-9.72243 9.72242-14.4287 20.77932-10.51175 24.69627s14.97385-.78932 24.69628-10.51174a42.818 42.818 0 0 0 7.46188-10.70686z" fill="#d9c06a" transform="translate(-158.82681 -60.50072)"/><path d="m257.16309 523.46949c-14.48118.92631-30.25994-.05387-47.04589 0v-38.43185c14.79122 2.30262 30.56472 2.06615 47.04589 0z" fill="#3f3d56" transform="translate(-158.82681 -60.50072)"/><path d="m500.99759 475.03125h195.51126v253.55366h-195.51126z" fill="#e6e6e6"/><path d="m92.66419 488.269h10.18288v240.31592h-10.18288z" fill="#e6e6e6"/><path d="m0 457.72036h696.50885v20.36576h-696.50885z" fill="#e6e6e6"/><path d="m87.57275 478.08612h20.36576v20.36576h-20.36576z" fill="#e6e6e6"/><path d="m614.155 489.796-1.146 4.583h-28.512l-1.718-4.583h-72.617v46.842h177.182v-46.842z" fill="#3f3d56"/><path d="m614.155 548.857-1.146 4.582h-28.512l-1.718-4.582h-72.617v46.841h177.182v-46.841z" fill="#3f3d56"/><path d="m614.155 607.918-1.146 4.582h-28.512l-1.718-4.582h-72.617v46.841h177.182v-46.841z" fill="#3f3d56"/><path d="m614.155 666.979-1.146 4.582h-28.512l-1.718-4.582h-72.617v46.841h177.182v-46.841z" fill="#3f3d56"/><path d="m377.785 454.665h-60.079l2.036-26.475h56.006z" fill="#e6e6e6"/><path d="m314.65093 451.61063h67.20699v6.10973h-67.20699z" fill="#e6e6e6"/><path d="m621.63862 318.12753h-229.6239a6.10973 6.10973 0 0 0 -6.10973 6.10973v140.01457h241.84335v-140.01457a6.10973 6.10973 0 0 0 -6.10972-6.10973z" fill="#3f3d56" transform="translate(-158.82681 -60.50072)"/><path d="m385.905 464.25183v22.91147a6.10973 6.10973 0 0 0 6.10973 6.10973h229.6239a6.10973 6.10973 0 0 0 6.10972-6.10973v-22.91147z" fill="#e6e6e6" transform="translate(-158.82681 -60.50072)"/><path d="m239.29763 270.35541h217.91359v122.19453h-217.91359z" fill="#fff"/><circle cx="348.25442" cy="418.00714" fill="#3f3d56" r="6.10973"/><path d="m1023.86229 787.5582c-22.25416 1.42352-46.50239-.08278-72.29843 0v-59.06069c22.73061 3.53859 46.97076 3.17519 72.29843 0z" fill="#3f3d56" transform="translate(-158.82681 -60.50072)"/><path d="m831.432 673.3h-6.11l2.037-119.351h2.036z" fill="#3f3d56"/><path d="m858.926 674.107h-6.11l2.037-119.352h2.036z" fill="#3f3d56"/><path d="m806.993 674.107h-6.11l2.037-119.352h2.036z" fill="#3f3d56"/><path d="m995.35023 538.07769 9.8628-15.24249a228.51376 228.51376 0 0 0 -10.11861-23.68669l-6.3776 5.1511 5.0498-7.80416c-4.81251-9.47323-8.59926-15.44187-8.59926-15.44187s-19.78017 31.17033-26.3886 64.17264l12.65624 19.55971-14.011-11.31664a92.45186 92.45186 0 0 0 -.76869 11.593c0 39.08574 12.76527 70.771 28.51206 70.771s28.512-31.68526 28.512-70.771c0-12.117-2.74124-24.794-6.52266-36.52063z" fill="#e6e6e6" transform="translate(-158.82681 -60.50072)"/><path d="m1022.844 540.11427 9.8628-15.2425a228.5147 228.5147 0 0 0 -10.11861-23.68669l-6.3776 5.15111 5.0498-7.80416c-4.81251-9.47323-8.59926-15.44188-8.59926-15.44188s-19.78017 31.17034-26.3886 64.17264l12.65626 19.55972-14.011-11.31664a92.45186 92.45186 0 0 0 -.76869 11.593c0 39.08574 12.76527 70.771 28.51206 70.771s28.51206-31.68526 28.51206-70.771c0-12.117-2.74125-24.794-6.52267-36.52064z" fill="#d9c06a" transform="translate(-158.82681 -60.50072)"/><path d="m970.91133 540.11427 9.8628-15.2425a228.51678 228.51678 0 0 0 -10.11862-23.68669l-6.3776 5.15111 5.0498-7.80416c-4.8125-9.47323-8.59926-15.44188-8.59926-15.44188s-19.78017 31.17034-26.3886 64.17264l12.65626 19.55972-14.011-11.31664a92.45186 92.45186 0 0 0 -.76869 11.593c0 39.08574 12.76527 70.771 28.51206 70.771s28.51206-31.68526 28.51206-70.771c0-12.117-2.74125-24.794-6.52266-36.52064z" fill="#d9c06a" transform="translate(-158.82681 -60.50072)"/><path d="m309.96395 304.84783h58.75616v3.37283h-58.75616z" fill="#3f3d56"/><path d="m309.96395 317.15098h90.7323v3.37283h-90.7323z" fill="#d9c06a"/><path d="m309.96395 328.74233h73.94482v3.37283h-73.94482z" fill="#d9c06a"/><path d="m309.96395 340.28988h43.16779v3.37283h-43.16779z" fill="#3f3d56"/><path d="m309.96395 351.83743h65.15139v3.37283h-65.15139z" fill="#3f3d56"/><path d="m283.18393 303.64873h7.19463v7.19463h-7.19463z" fill="#3f3d56"/><path d="m283.18393 315.24008h7.19463v7.19463h-7.19463z" fill="#d9c06a"/><path d="m283.18393 326.83143h7.19463v7.19463h-7.19463z" fill="#d9c06a"/><path d="m283.18393 338.42278h7.19463v7.19463h-7.19463z" fill="#3f3d56"/><path d="m283.18393 350.01413h7.19463v7.19463h-7.19463z" fill="#3f3d56"/><path d="m605.94216 358.96335h-30.83316a107.84044 107.84044 0 0 1 0-36.76267h30.8332a66.14839 66.14839 0 0 0 -.00004 36.76267z" fill="#d9c06a" transform="translate(-158.82681 -60.50072)"/><path d="m381.59071 432.64519-12.68484-3.092a32.65651 32.65651 0 0 1 -32.05067-39.12409 42.68467 42.68467 0 0 1 42.631-42.73825h.00008a42.68468 42.68468 0 0 1 42.73825 42.631v.00006c7.19221 25.02823-15.33345 48.49047-40.63382 42.32328z" fill="#2f2e41" transform="translate(-158.82681 -60.50072)"/><circle cx="236.61974" cy="345.24334" fill="#ffb8b8" r="31.36369"/><path d="m374.992 422.10773s-9.54547 32.72733-15 35.4546 43.63644 6.8182 43.63644 6.8182-1.36364-31.36369 1.36364-34.091-30.00008-8.1818-30.00008-8.1818z" fill="#ffb8b8" transform="translate(-158.82681 -60.50072)"/><path d="m424.083 623.92626s61.36374-5.45456 69.54557 15-5.45457 141.81845-5.45457 141.81845h-25.90915v-99.54563s-110.4725-31.40179-110.4725-42.31089 72.29065-14.96193 72.29065-14.96193z" fill="#2f2e41" transform="translate(-158.82681 -60.50072)"/><path d="m484.08307 775.29015 13.63639 5.45456s16.36366-1.36364 9.54547 10.90911a27.00366 27.00366 0 0 1 -19.09093 13.63639s-25.90914 9.54547-27.27278 0 6.8182-28.63642 6.8182-28.63642z" fill="#2f2e41" transform="translate(-158.82681 -60.50072)"/><path d="m389.992 623.92626s61.36374-5.45456 69.54557 15-5.45457 141.81845-5.45457 141.81845h-25.90912v-99.54563s-78.4181-18.164-78.4181-29.07315c0-5.12492-5.34348-31.171 4.07315-36.65836 10.628-6.19325 36.16307 8.45869 36.16307 8.45869z" fill="#2f2e41" transform="translate(-158.82681 -60.50072)"/><path d="m449.9921 775.29015 13.63639 5.45456s16.36367-1.36364 9.54547 10.90911a27.00366 27.00366 0 0 1 -19.09096 13.63639s-25.90914 9.54547-27.27277 0 6.81819-28.63642 6.81819-28.63642z" fill="#2f2e41" transform="translate(-158.82681 -60.50072)"/><path d="m361.35559 453.47142 40.98018 4.45436a30.18224 30.18224 0 0 1 26.26893 23.76669l15.93285 75.41553s5.45455 75.00013-5.45456 79.091-25.90913-16.36366-46.36371-13.63638-47.04554 8.86365-47.04554 8.86365-4.22274-134.24727-4.77274-145.22752c-1.09958-21.95106 20.45459-32.72733 20.45459-32.72733z" fill="#575a89" transform="translate(-158.82681 -60.50072)"/><path d="m458.42733 627.82255 16.82365 9.9078s30.18279-4.33064 29.24058 6.278-33.8887 8.55886-33.8887 8.55886l-20.275-12.493z" fill="#ffb8b8" transform="translate(-158.82681 -60.50072)"/><circle cx="175.7429" cy="299.47504" fill="#2f2e41" r="20.25966"/><path d="m353.26293 349.08471a20.2502 20.2502 0 0 0 -24.24652-19.836 20.25023 20.25023 0 1 1 12.63025 38.16451 20.243 20.243 0 0 0 11.61627-18.32851z" fill="#2f2e41" transform="translate(-158.82681 -60.50072)"/><path d="m370.64347 360.57471 27.313-5.02907 21.00491 13.16494a31.86273 31.86273 0 0 1 14.6776 31.09515l-21.0372-5.33225-4.71074-11.81208-5.61047 9.196-29.33406 37.75029-16.46978-10.48815-14.68292-23.00931z" fill="#2f2e41" transform="translate(-158.82681 -60.50072)"/><path d="m393.13569 465.07123 13.63639-6.8182s28.63641 4.09092 34.091 23.18186 30 151.3639 30 151.3639l-23.18184 10.90911-32.72733-80.45468z" fill="#575a89" transform="translate(-158.82681 -60.50072)"/><path d="m245.917 458.23 13.648 52.975 24.202 59.496-.839 2.06-28.865-60.562z" opacity=".2"/><path d="m144.084 750.379-4.813-1.658 46.625-138.49 6.74 2.322z" fill="#3f3d56"/><path d="m322.291 750.379 4.814-1.658-46.626-138.49-6.739 2.322z" fill="#3f3d56"/><path d="m223.77 778.981 5.091.018 1.582-161.892-7.128-.025z" fill="#3f3d56"/><path d="m291.12655 589.35709 13.96582 56.44513a44.82625 44.82625 0 0 0 32.64214 32.72145h.00008a238.26046 238.26046 0 0 0 118.54694-.7638l20.8512-5.49922c12.11558-3.19531 21.22652-13.60111 22.0886-26.10127a25.68469 25.68469 0 0 0 -2.323-12.8718q-.12219-.25966-.24559-.51476a34.06444 34.06444 0 0 0 -29.59817-19.13845l-22.08892-.71254-80.44465-35.64006s-27.66705-14.0531-50.4117-15.62629c-15.02078-1.03894-26.59906 13.08573-22.98275 27.70161z" fill="#d9c06a" transform="translate(-158.82681 -60.50072)"/><path d="m543.25654 351.30929h79.42645v107.93851h-79.42645z" fill="#e6e6e6"/><path d="m552.42113 363.76373h61.09727v83.02962h-61.09727z" fill="#fff"/><path d="m576.46734 385.49176h29.60198v3.37283h-29.60198z" fill="#3f3d56"/><path d="m559.8702 383.62466h7.19463v7.19463h-7.19463z" fill="#3f3d56"/><path d="m576.46734 399.74779h29.60198v3.37283h-29.60198z" fill="#3f3d56"/><path d="m559.8702 397.88069h7.19463v7.19463h-7.19463z" fill="#3f3d56"/><path d="m576.46734 414.00382h29.60198v3.37283h-29.60198z" fill="#3f3d56"/><path d="m559.8702 412.13672h7.19463v7.19463h-7.19463z" fill="#3f3d56"/><rect fill="#3f3d56" height="6.10973" rx="3.05486" width="6.10973" x="579.9149" y="354.36415"/></svg>